# xmcd
#
# Track frame offsets:
#	150
#	11897
#	25217
#	37412
#	51857
#	63227
#	76547
#	88442
#	101912
#	112682
#	125927
#	137972
#	150767
#	164537
#	177182
#	187652
#	199922
#	212567
#	224837
#	237857
#	250577
#	261647
#	273617
#	285587
#	298457
#
# Disc length: 4124 seconds
#
# Revision: 0
# Processed by: cddbd v1.5.2PL0 Copyright (c) Steve Scherf et al.
# Submitted via: EZCDAudioConverter 2.1.2.1
#
DISCID=83101a19
DTITLE=Various Artist - Country and Western: A Ride Through History [CD5) - 1950 Part 2
DYEAR=1900
DGENRE=
TTITLE0=Hank Williams - Long Gone Lonesome Blues
TTITLE1=The Delmore Brothers - Pan American Boogie
TTITLE2=Ernest Tubb - I'll Take A Backseat For You
TTITLE3=Red Foley - Sunday Down In Tennessee
TTITLE4=Eddy Arnold - Little Angel With A Dirty Face
TTITLE5=Carl Smith - I Overlooked An Orchid
TTITLE6=Hank Snow - Marriage Vow
TTITLE7=Red Foley - Birmingham Bounce
TTITLE8=Hank Williams - Why Don't You Love Me
TTITLE9=Tennessee Ernie Ford - The Cry Of The Wild Goose
TTITLE10=Lester Flatt and Earl Scruggs - Foggy Mountain Breakdown
TTITLE11=Johnny Lee Wills - Rag Mop
TTITLE12=Ernest Tubb - Give Me A Little Old Fashioned Love
TTITLE13=Jimmy Skinner - You're My Big Baby Now
TTITLE14=Hank Penny - Bloodshot Eyes
TTITLE15=Red Foley and Ernest Tubb - Hillbilly Fever No. 2
TTITLE16=Ernest Tubb - Blue Christmas
TTITLE17=Hank Williams - They'll Never Take Her Love From Ne
TTITLE18=Bob Wills - Faded Love
TTITLE19=Moon Mullican - Mona Lisa
TTITLE20=Bill Haley and The Saddlemen - Ten Gallon Stetson
TTITLE21=Ernest Tubb - I Love You Because
TTITLE22=Tennessee Ernie Ford and Kay Starr - Ain't Nobody's Business But Mine
TTITLE23=Gene Autry - Frosty The Snowman
TTITLE24=Eddy Arnold - The Lovebug Itch
EXTD=
EXTT0=
EXTT1=
EXTT2=
EXTT3=
EXTT4=
EXTT5=
EXTT6=
EXTT7=
EXTT8=
EXTT9=
EXTT10=
EXTT11=
EXTT12=
EXTT13=
EXTT14=
EXTT15=
EXTT16=
EXTT17=
EXTT18=
EXTT19=
EXTT20=
EXTT21=
EXTT22=
EXTT23=
EXTT24=
PLAYORDER=
